PathFileType	4	(X/Y/Z)	C:\Users\WrightLab\Desktop\Jo\P4V127.trc
DataRate	CameraRate	NumFrames	NumMarkers	Units	OrigDataRate	OrigDataStartFrame	OrigNumFrames
100.00	100.00	       17	19	mm	100.00	161	       642
Frame#	Time	Headset_Front			Headset_Back			Headset_Left			Headset_Right			Left_Shoulder			Right_Shoulder			Sternum			C7			Left Elbow			Right Elbow			Left Wrist			Right Wrist			Left ASIS			Right ASIS			S2			Left Knee			Right Knee			Left Ankle			Right Ankle			
		X1	Y1	Z1	X2	Y2	Z2	X3	Y3	Z3	X4	Y4	Z4	X5	Y5	Z5	X6	Y6	Z6	X7	Y7	Z7	X8	Y8	Z8	X9	Y9	Z9	X10	Y10	Z10	X11	Y11	Z11	X12	Y12	Z12	X13	Y13	Z13	X14	Y14	Z14	X15	Y15	Z15	X16	Y16	Z16	X17	Y17	Z17	X18	Y18	Z18	X19	Y19	Z19	

161	1.600																									14.93762	1127.90845	-1286.17590				-69.82730	849.83875	-1172.53809	-567.68701	815.84381	-1394.73340	-115.13757	955.61945	-1302.31799	-438.20490	982.48169	-1379.97607				-68.96917	488.50845	-1426.68701	-530.37781	539.10242	-1293.78833							
162	1.610																									8.23507	1127.80762	-1280.52173				-75.78213	848.78717	-1163.00159	-574.16742	814.06775	-1390.95386	-120.54417	955.25250	-1293.40808	-445.19226	981.89050	-1370.47131				-74.23520	487.36273	-1422.23865	-538.10773	539.20679	-1286.34973							
163	1.620																									2.22394	1126.87830	-1272.27979				-83.49491	848.73309	-1152.46716	-580.56622	812.25208	-1389.16589	-127.62238	952.83350	-1290.68225	-450.85080	980.54791	-1362.01147				-79.55183	484.79257	-1419.71521	-543.42352	535.98584	-1279.17090							
164	1.630																									-4.88801	1125.16333	-1263.01965				-91.69820	848.77124	-1141.16516	-586.78961	811.02478	-1384.13000	-133.08884	951.37836	-1280.57410	-457.92816	978.12610	-1356.12170				-83.92056	485.28729	-1410.91406	-549.85736	535.51086	-1270.72925							
165	1.640																									-11.42319	1124.17859	-1254.67676				-98.28295	848.42761	-1131.43433	-592.69440	808.71143	-1380.46155	-140.79373	948.91742	-1277.47266	-463.33487	978.56458	-1345.44189				-89.22890	484.38901	-1402.99707	-556.73242	534.66302	-1262.82544							
166	1.650																									-18.14343	1123.05261	-1246.50732				-105.70033	848.13257	-1121.48157	-599.27216	806.97577	-1376.23169	-148.23489	949.30560	-1264.61877	-471.42978	978.55371	-1337.80408				-94.32283	482.43909	-1403.14429	-564.31372	534.23364	-1255.52417							
167	1.660																									-25.25811	1121.45569	-1236.82678				-112.85394	847.93463	-1112.28296	-604.95331	805.68573	-1372.49768	-155.48669	947.45636	-1261.97974	-478.06216	978.38422	-1331.05896				-99.34641	483.20349	-1392.45667	-571.86987	534.17096	-1248.09949							
168	1.670																									-31.69425	1122.22571	-1231.23694				-120.88597	849.45831	-1101.52063	-611.19574	803.54816	-1367.47766	-163.64674	946.72394	-1254.57837	-485.15887	979.42200	-1324.47705				-105.48067	483.19302	-1383.83960	-580.46942	535.38538	-1241.66992							
169	1.680																									-38.81571	1121.04138	-1220.66345				-128.93840	849.67761	-1092.02319	-617.15961	803.13245	-1363.63220	-171.79602	948.11017	-1241.06445	-493.00089	980.14124	-1317.92786				-112.49293	484.07733	-1377.37903	-589.76208	537.31268	-1235.33679							
170	1.690																									-46.14459	1122.09351	-1214.30798				-136.21686	850.28857	-1082.23035	-624.77917	803.02911	-1357.86768	-180.76913	946.25684	-1237.34326	-500.88834	981.21484	-1311.88989				-118.53418	486.13474	-1362.22437	-598.95801	538.74957	-1229.29663							
171	1.700																									-53.47290	1122.81287	-1206.46045				-144.03961	851.43378	-1072.36768	-630.27466	802.85010	-1353.38770	-190.12947	946.66882	-1228.90161	-507.47372	982.60822	-1304.75635				-125.62119	485.38110	-1354.07324	-607.61511	538.91382	-1223.46790							
172	1.710																									-60.92611	1123.56714	-1198.50903				-150.62315	853.49524	-1062.99109	-635.97009	802.88708	-1348.40100	-197.92520	947.85413	-1215.74268	-516.23761	983.30957	-1298.70227				-132.75319	484.85251	-1342.38318	-615.26733	539.43152	-1219.23743							
173	1.720																									-68.38855	1125.35864	-1191.67053				-159.14162	855.23785	-1053.26501	-641.98480	803.99542	-1342.98474	-206.87207	948.40149	-1212.32251	-525.40582	985.27698	-1292.52625				-140.77049	487.29889	-1320.54834	-620.81049	538.68530	-1216.28870							
174	1.730																									-75.65678	1127.23792	-1185.80615				-165.60840	858.65826	-1044.94763	-648.37122	805.03101	-1336.70337	-216.32816	948.96240	-1204.96423	-534.05609	987.19714	-1287.14417				-149.16626	486.24057	-1306.94604	-625.03314	536.86499	-1213.74060							
175	1.740																									-83.41967	1127.74512	-1175.63855				-172.87329	861.61230	-1036.62744	-654.31238	806.57568	-1329.98242	-223.96141	949.52618	-1194.37549	-540.85864	988.59265	-1280.98291				-158.64175	485.21738	-1292.54333	-628.61212	534.76440	-1211.23230							
176	1.750																									-90.53843	1130.18689	-1170.71240				-180.47144	863.54749	-1027.22046	-660.49213	808.67957	-1323.21619	-232.86983	952.08771	-1185.59302	-549.02124	990.62671	-1274.91467				-165.97430	484.48947	-1273.77332	-631.45001	533.28790	-1209.19983							
177	1.760																									-97.91114	1132.25024	-1164.43054				-187.26750	866.82849	-1019.06177	-666.05402	810.25134	-1316.65771	-240.75491	953.06140	-1183.57349	-557.19940	992.76733	-1269.86926				-176.66606	483.26596	-1256.72229	-634.39838	532.36157	-1207.30652							
